<?xml version="1.0" encoding="UTF-8"?>
<svg id="Layer_1" data-name="Layer 1" xmlns="http://www.w3.org/2000/svg" viewBox="0 0 2834.65 2834.65">
  <defs>
    <style>
      .cls-1, .cls-2, .cls-3, .cls-4 {
        stroke-width: 0px;
      }

      .cls-1, .cls-3 {
        fill: #2d1717;
      }

      .cls-2 {
        fill: #e69f27;
      }

      .cls-2, .cls-3, .cls-4 {
        fill-rule: evenodd;
      }

      .cls-4 {
        fill: #bd7800;
      }
    </style>
  </defs>
  <g id="Layer_1-2" data-name="Layer_1">
    <g id="_2095413090080" data-name=" 2095413090080">
      <g>
        <path class="cls-2" d="m1417.32,65.7c746.55,0,1351.74,605.19,1351.74,1351.74s-605.19,1351.74-1351.74,1351.74S65.58,2163.99,65.58,1417.44c0-91.74,9.19-181.33,26.61-267.94,72.92,50.85,293.11,145.96,345.07,126.45,147.81-55.49,51.12-191,152.79-245.61,96.37-51.76,267.32,29.92,296.99-24.6,60.19-110.61-29.99-222.73,5.95-280.59,65.05-104.7,241.78,29.06,323.44-115.15,72.25-127.59-29.68-144.25-18.33-279.39,7.2-85.76,113.64-45.42,159.03-110.79,21.28-30.65,10.5-89.43-8.4-152.4,22.72-1.14,45.59-1.72,68.6-1.72h0Z"/>
        <path class="cls-4" d="m2679.71,933.38c57.67,150.3,89.35,313.47,89.35,484.06,0,746.55-605.19,1351.74-1351.74,1351.74-434.26,0-820.64-204.82-1067.95-523.09.43-2.13.83-4.23,1.26-6.36,1196.16,933.41,2517.64,104.91,2329.07-1306.35h0Z"/>
        <path class="cls-4" d="m1417.32,65.7c149.16,0,292.64,24.22,426.81,68.84-105.97-23.69-216.41-36.26-329.93-36.26-24.59,0-49.03.6-73.31,1.76,20.2,64.41,45.95,128.09,23.21,159.44-48.51,66.86-160.49,41.61-168.18,129.32-12.12,138.22,100.35,139.26,23.15,269.76-87.27,147.5-265.47,33.81-334.99,140.9-38.41,59.17,81.39,189.91-19.69,271.87-112.63,91.32-231.29-39.35-334.29,13.59-108.66,55.85,9.64,207.23-149.06,261.89-130.23,44.85-305.07-87.99-383-140.01-18.61,88.59-28.43,180.22-28.43,274.06,0,18.7.5,37.29,1.27,55.82-3.43-39.3-5.29-79.05-5.29-119.24,0-91.74,9.19-181.33,26.61-267.94,72.92,50.85,293.11,145.96,345.07,126.45,147.81-55.49,51.12-191,152.79-245.61,96.37-51.76,267.32,29.92,296.99-24.6,60.19-110.61-29.99-222.73,5.95-280.59,65.05-104.7,241.78,29.06,323.44-115.15,72.25-127.59-29.68-144.25-18.33-279.39,7.2-85.76,113.64-45.42,159.03-110.79,21.28-30.65,10.5-89.43-8.4-152.4,22.72-1.14,45.59-1.72,68.6-1.72h0Z"/>
        <path class="cls-1" d="m1417.32,23.01c385.05,0,733.66,156.08,986,408.42,252.34,252.34,408.42,600.95,408.42,986s-156.08,733.66-408.42,986c-252.34,252.34-600.95,408.42-986,408.42s-733.66-156.08-986-408.42C178.98,2151.1,22.9,1802.49,22.9,1417.44c0-46.03,2.38-92.41,7-138.97,4.59-46.19,11.5-92,20.61-137.31,4.6-23.02,27-37.95,50.02-33.35,6.17,1.23,11.76,3.75,16.54,7.21,37.96,26.31,119.36,65.75,193.52,92.92,95.61,35.03,162.32,56.85,180.14-74.93,7.27-53.74,14.25-105.34,79.14-140.19,61.29-32.92,137.17-23.64,202.74-15.63,41.33,5.05,76.45,9.34,77.07,8.21,26.53-48.75,14.04-103.73,3.48-150.23-11.32-49.82-21.07-92.75,3.64-132.53,43.05-69.29,108.73-66.43,178.69-63.38,54.38,2.37,112.68,4.91,143.92-50.27,31.01-54.76,18.92-82.54,4.57-115.52-49.11-112.88-59.25-214.87,80.1-250.11,22.69-5.74,46.91-11.86,58.03-27.88,4.33-6.24,5.06-19.1,3.53-35.9-2.07-22.74-8.94-50.58-17.77-79.98-6.72-22.56,6.12-46.3,28.68-53.02,4.17-1.24,8.38-1.81,12.52-1.78,10.05-.48,21-.88,32.85-1.17,15.83-.4,27.69-.6,35.41-.6h0Zm925.64,468.78c-236.89-236.89-564.16-383.41-925.65-383.41l-13.84.03c3.21,14.98,5.6,29.55,6.87,43.49,3.27,35.99-1.26,67.85-18.2,92.26-29.26,42.14-69.59,52.34-107.39,61.9-72.78,18.4-47.72,75.96-22.74,133.39,23.56,54.14,43.4,99.75-8.58,191.55-56.89,100.47-142.11,96.75-221.62,93.29-44.26-1.93-85.82-3.74-102.65,23.36-6.3,10.14-.13,37.31,7.03,68.83,13.8,60.73,30.11,132.54-11.81,209.59-28.38,52.16-89.81,44.65-162.11,35.81-53.23-6.5-114.83-14.04-152.05,5.96-26.71,14.35-30.83,44.79-35.12,76.5-25.53,188.75-140.66,199.76-293.86,143.63-53.89-19.75-112.29-46.18-157.91-70.55-3.49,22.86-6.41,45.99-8.74,69.38-4.18,42.11-6.33,85.67-6.33,130.63,0,361.49,146.52,688.75,383.41,925.65,236.89,236.89,564.16,383.41,925.65,383.41s688.75-146.52,925.65-383.41c236.89-236.89,383.41-564.16,383.41-925.65s-146.52-688.75-383.41-925.64h0Z"/>
        <path class="cls-3" d="m1971.15,522.91c110.88,0,200.77,89.89,200.77,200.77s-89.89,200.77-200.77,200.77-200.77-89.89-200.77-200.77,89.89-200.77,200.77-200.77Zm0,60.73c-8.21,0-14.87-6.66-14.87-14.87s6.66-14.87,14.87-14.87c46.88,0,89.33,19.01,120.05,49.73,30.72,30.72,49.73,73.17,49.73,120.05,0,8.21-6.66,14.87-14.87,14.87s-14.87-6.66-14.87-14.87c0-38.67-15.68-73.69-41.01-99.03-25.34-25.34-60.35-41.01-99.03-41.01Z"/>
        <path class="cls-3" d="m2353.34,1273.05c92.34,0,167.19,74.85,167.19,167.19s-74.85,167.19-167.19,167.19-167.19-74.85-167.19-167.19,74.85-167.19,167.19-167.19Zm0,50.57c-6.84,0-12.39-5.55-12.39-12.38s5.55-12.39,12.39-12.39c39.04,0,74.39,15.83,99.97,41.41,25.59,25.58,41.41,60.93,41.41,99.97,0,6.84-5.55,12.39-12.39,12.39s-12.38-5.55-12.38-12.39c0-32.21-13.05-61.36-34.15-82.46-21.1-21.1-50.26-34.16-82.46-34.16h0Z"/>
        <path class="cls-3" d="m1545.85,1145c58.94,0,106.71,47.78,106.71,106.71s-47.78,106.71-106.71,106.71-106.71-47.78-106.71-106.71,47.78-106.71,106.71-106.71Zm0,32.28c-4.36,0-7.9-3.54-7.9-7.91s3.54-7.9,7.9-7.9c24.92,0,47.48,10.1,63.81,26.43,16.33,16.33,26.43,38.89,26.43,63.81,0,4.36-3.54,7.91-7.91,7.91s-7.9-3.54-7.9-7.91c0-20.56-8.33-39.17-21.8-52.63-13.47-13.47-32.08-21.8-52.64-21.8h0Z"/>
        <path class="cls-3" d="m1976.27,1877.78c64.83,0,117.39,52.56,117.39,117.39s-52.56,117.39-117.39,117.39-117.39-52.56-117.39-117.39,52.56-117.39,117.39-117.39h0Zm0,35.51c-4.8,0-8.7-3.89-8.7-8.7s3.89-8.7,8.7-8.7c27.41,0,52.23,11.12,70.2,29.08,17.96,17.96,29.08,42.78,29.08,70.19,0,4.8-3.89,8.7-8.7,8.7s-8.7-3.89-8.7-8.7c0-22.61-9.17-43.09-23.98-57.9-14.82-14.82-35.29-23.98-57.9-23.98h0Z"/>
        <path class="cls-3" d="m1202.79,1533.16c110.88,0,200.77,89.89,200.77,200.77s-89.89,200.77-200.77,200.77-200.77-89.89-200.77-200.77,89.89-200.77,200.77-200.77Zm0,60.73c-8.21,0-14.87-6.66-14.87-14.87s6.66-14.87,14.87-14.87c46.88,0,89.33,19.01,120.05,49.73,30.72,30.72,49.73,73.17,49.73,120.05,0,8.21-6.66,14.87-14.87,14.87s-14.87-6.66-14.87-14.87c0-38.67-15.68-73.69-41.01-99.03-25.34-25.34-60.35-41.01-99.03-41.01h0Z"/>
        <path class="cls-3" d="m539.16,1571.85c72.69,0,131.62,58.93,131.62,131.62s-58.93,131.62-131.62,131.62-131.62-58.93-131.62-131.62,58.93-131.62,131.62-131.62Zm0,39.81c-5.38,0-9.75-4.37-9.75-9.75s4.37-9.75,9.75-9.75c30.74,0,58.56,12.46,78.7,32.6,20.14,20.14,32.6,47.97,32.6,78.7,0,5.38-4.37,9.75-9.75,9.75s-9.75-4.37-9.75-9.75c0-25.35-10.28-48.31-26.89-64.92-16.61-16.61-39.57-26.89-64.92-26.89Z"/>
        <path class="cls-3" d="m1325.3,2240.62c47.15,0,85.37,38.22,85.37,85.37s-38.22,85.37-85.37,85.37-85.37-38.22-85.37-85.37,38.22-85.37,85.37-85.37Zm0,25.82c-3.49,0-6.32-2.83-6.32-6.32s2.83-6.32,6.32-6.32c19.94,0,37.99,8.08,51.05,21.15,13.06,13.06,21.15,31.11,21.15,51.05,0,3.49-2.83,6.32-6.32,6.32s-6.32-2.83-6.32-6.32c0-16.45-6.67-31.33-17.44-42.11-10.77-10.77-25.66-17.44-42.11-17.44h0Z"/>
      </g>
    </g>
  </g>
</svg>